solid AutoCAD
   facet normal 0.0000000e+000 1.0000000e+000 -0.0000000e+000
      outer loop
         vertex 9.2754755e+002 5.0000010e+000 4.3000001e+001
         vertex 9.2554755e+002 5.0000010e+000 4.3000001e+001
         vertex 9.2754755e+002 5.0000010e+000 8.0000001e+001
      endloop
   endfacet
   facet normal -0.0000000e+000 1.0000000e+000 0.0000000e+000
      outer loop
         vertex 9.2554755e+002 5.0000010e+000 4.3000001e+001
         vertex 9.2554755e+002 5.0000010e+000 8.0000001e+001
         vertex 9.2754755e+002 5.0000010e+000 8.0000001e+001
      endloop
   endfacet
   facet normal -1.0000000e+000 0.0000000e+000 0.0000000e+000
      outer loop
         vertex 9.2554755e+002 5.0000010e+000 4.3000001e+001
         vertex 9.2554755e+002 2.0000010e+000 4.3000001e+001
         vertex 9.2554755e+002 5.0000010e+000 8.0000001e+001
      endloop
   endfacet
   facet normal -1.0000000e+000 0.0000000e+000 0.0000000e+000
      outer loop
         vertex 9.2554755e+002 2.0000010e+000 4.3000001e+001
         vertex 9.2554755e+002 2.0000010e+000 8.0000001e+001
         vertex 9.2554755e+002 5.0000010e+000 8.0000001e+001
      endloop
   endfacet
   facet normal 0.0000000e+000 0.0000000e+000 1.0000000e+000
      outer loop
         vertex 9.2754755e+002 2.2000001e+001 4.3000001e+001
         vertex 8.8454755e+002 2.2000001e+001 4.3000001e+001
         vertex 9.2554755e+002 5.0000010e+000 4.3000001e+001
      endloop
   endfacet
   facet normal -0.0000000e+000 0.0000000e+000 1.0000000e+000
      outer loop
         vertex 9.2754755e+002 2.2000001e+001 4.3000001e+001
         vertex 9.2554755e+002 5.0000010e+000 4.3000001e+001
         vertex 9.2754755e+002 5.0000010e+000 4.3000001e+001
      endloop
   endfacet
   facet normal 0.0000000e+000 -0.0000000e+000 1.0000000e+000
      outer loop
         vertex 9.2554755e+002 2.0000010e+000 4.3000001e+001
         vertex 9.2554755e+002 5.0000010e+000 4.3000001e+001
         vertex 8.8454755e+002 2.0000010e+000 4.3000001e+001
      endloop
   endfacet
   facet normal 0.0000000e+000 -0.0000000e+000 1.0000000e+000
      outer loop
         vertex 8.8454755e+002 2.0000010e+000 4.3000001e+001
         vertex 9.2554755e+002 5.0000010e+000 4.3000001e+001
         vertex 8.8454755e+002 2.2000001e+001 4.3000001e+001
      endloop
   endfacet
   facet normal 1.0000000e+000 0.0000000e+000 0.0000000e+000
      outer loop
         vertex 8.8454755e+002 2.2000001e+001 8.0000001e+001
         vertex 8.8454755e+002 2.0000010e+000 8.0000001e+001
         vertex 8.8454755e+002 2.2000001e+001 4.3000001e+001
      endloop
   endfacet
   facet normal 1.0000000e+000 -0.0000000e+000 0.0000000e+000
      outer loop
         vertex 8.8454755e+002 2.0000010e+000 8.0000001e+001
         vertex 8.8454755e+002 2.0000010e+000 4.3000001e+001
         vertex 8.8454755e+002 2.2000001e+001 4.3000001e+001
      endloop
   endfacet
   facet normal -0.0000000e+000 1.0000000e+000 0.0000000e+000
      outer loop
         vertex 8.8454755e+002 2.0000010e+000 8.0000001e+001
         vertex 9.2554755e+002 2.0000010e+000 8.0000001e+001
         vertex 8.8454755e+002 2.0000010e+000 4.3000001e+001
      endloop
   endfacet
   facet normal 0.0000000e+000 1.0000000e+000 0.0000000e+000
      outer loop
         vertex 9.2554755e+002 2.0000010e+000 8.0000001e+001
         vertex 9.2554755e+002 2.0000010e+000 4.3000001e+001
         vertex 8.8454755e+002 2.0000010e+000 4.3000001e+001
      endloop
   endfacet
   facet normal 5.4580646e-029 1.0000000e+000 -4.8009644e-016
      outer loop
         vertex 9.2754755e+002 5.0000010e+000 1.0000003e-006
         vertex 9.2554755e+002 5.0000010e+000 1.0000001e-006
         vertex 9.2754755e+002 5.0000010e+000 3.7000001e+001
      endloop
   endfacet
   facet normal 0.0000000e+000 1.0000000e+000 -4.8009644e-016
      outer loop
         vertex 9.2554755e+002 5.0000010e+000 1.0000001e-006
         vertex 9.2554755e+002 5.0000010e+000 3.7000001e+001
         vertex 9.2754755e+002 5.0000010e+000 3.7000001e+001
      endloop
   endfacet
   facet normal -1.0000000e+000 0.0000000e+000 0.0000000e+000
      outer loop
         vertex 9.2554755e+002 5.0000010e+000 1.0000001e-006
         vertex 9.2554755e+002 2.0000010e+000 1.0000003e-006
         vertex 9.2554755e+002 5.0000010e+000 3.7000001e+001
      endloop
   endfacet
   facet normal -1.0000000e+000 0.0000000e+000 0.0000000e+000
      outer loop
         vertex 9.2554755e+002 2.0000010e+000 1.0000003e-006
         vertex 9.2554755e+002 2.0000010e+000 3.7000001e+001
         vertex 9.2554755e+002 5.0000010e+000 3.7000001e+001
      endloop
   endfacet
   facet normal 0.0000000e+000 0.0000000e+000 -1.0000000e+000
      outer loop
         vertex 9.2554755e+002 2.0000010e+000 3.7000001e+001
         vertex 8.8454755e+002 2.0000010e+000 3.7000001e+001
         vertex 9.2554755e+002 5.0000010e+000 3.7000001e+001
      endloop
   endfacet
   facet normal 0.0000000e+000 0.0000000e+000 -1.0000000e+000
      outer loop
         vertex 8.8454755e+002 2.0000010e+000 3.7000001e+001
         vertex 8.8454755e+002 2.2000001e+001 3.7000001e+001
         vertex 9.2554755e+002 5.0000010e+000 3.7000001e+001
      endloop
   endfacet
   facet normal 0.0000000e+000 0.0000000e+000 -1.0000000e+000
      outer loop
         vertex 9.2754755e+002 5.0000010e+000 3.7000001e+001
         vertex 9.2554755e+002 5.0000010e+000 3.7000001e+001
         vertex 9.2754755e+002 2.2000001e+001 3.7000001e+001
      endloop
   endfacet
   facet normal 0.0000000e+000 0.0000000e+000 -1.0000000e+000
      outer loop
         vertex 9.2554755e+002 5.0000010e+000 3.7000001e+001
         vertex 8.8454755e+002 2.2000001e+001 3.7000001e+001
         vertex 9.2754755e+002 2.2000001e+001 3.7000001e+001
      endloop
   endfacet
   facet normal 1.0000000e+000 0.0000000e+000 0.0000000e+000
      outer loop
         vertex 8.8454755e+002 2.2000001e+001 3.7000001e+001
         vertex 8.8454755e+002 2.0000010e+000 3.7000001e+001
         vertex 8.8454755e+002 2.2000001e+001 1.0000003e-006
      endloop
   endfacet
   facet normal 1.0000000e+000 -0.0000000e+000 0.0000000e+000
      outer loop
         vertex 8.8454755e+002 2.0000010e+000 3.7000001e+001
         vertex 8.8454755e+002 2.0000010e+000 1.0000003e-006
         vertex 8.8454755e+002 2.2000001e+001 1.0000003e-006
      endloop
   endfacet
   facet normal 0.0000000e+000 1.0000000e+000 -4.8009644e-016
      outer loop
         vertex 8.8454755e+002 2.0000010e+000 3.7000001e+001
         vertex 9.2554755e+002 2.0000010e+000 3.7000001e+001
         vertex 8.8454755e+002 2.0000010e+000 1.0000003e-006
      endloop
   endfacet
   facet normal 0.0000000e+000 1.0000000e+000 -4.8009644e-016
      outer loop
         vertex 9.2554755e+002 2.0000010e+000 3.7000001e+001
         vertex 9.2554755e+002 2.0000010e+000 1.0000003e-006
         vertex 8.8454755e+002 2.0000010e+000 1.0000003e-006
      endloop
   endfacet
   facet normal 1.0000000e+000 0.0000000e+000 -0.0000000e+000
      outer loop
         vertex 9.2754755e+002 5.0000010e+000 1.0000003e-006
         vertex 9.2754755e+002 5.0000010e+000 3.7000001e+001
         vertex 9.2754755e+002 1.0000000e-006 1.0000003e-006
      endloop
   endfacet
   facet normal 1.0000000e+000 0.0000000e+000 -0.0000000e+000
      outer loop
         vertex 9.2754755e+002 1.0000000e-006 1.0000003e-006
         vertex 9.2754755e+002 5.0000010e+000 3.7000001e+001
         vertex 9.2754755e+002 5.0000010e+000 4.3000001e+001
      endloop
   endfacet
   facet normal 1.0000000e+000 0.0000000e+000 -0.0000000e+000
      outer loop
         vertex 9.2754755e+002 1.0000000e-006 1.0000003e-006
         vertex 9.2754755e+002 5.0000010e+000 4.3000001e+001
         vertex 9.2754755e+002 1.0000000e-006 8.0000001e+001
      endloop
   endfacet
   facet normal 1.0000000e+000 0.0000000e+000 0.0000000e+000
      outer loop
         vertex 9.2754755e+002 2.2000001e+001 4.3000001e+001
         vertex 9.2754755e+002 5.0000010e+000 4.3000001e+001
         vertex 9.2754755e+002 2.2000001e+001 3.7000001e+001
      endloop
   endfacet
   facet normal 1.0000000e+000 0.0000000e+000 -0.0000000e+000
      outer loop
         vertex 9.2754755e+002 5.0000010e+000 4.3000001e+001
         vertex 9.2754755e+002 5.0000010e+000 8.0000001e+001
         vertex 9.2754755e+002 1.0000000e-006 8.0000001e+001
      endloop
   endfacet
   facet normal 1.0000000e+000 0.0000000e+000 0.0000000e+000
      outer loop
         vertex 9.2754755e+002 2.2000001e+001 3.7000001e+001
         vertex 9.2754755e+002 5.0000010e+000 4.3000001e+001
         vertex 9.2754755e+002 5.0000010e+000 3.7000001e+001
      endloop
   endfacet
   facet normal -0.0000000e+000 -1.0000000e+000 -0.0000000e+000
      outer loop
         vertex 9.2754755e+002 1.0000000e-006 8.0000001e+001
         vertex 8.8254755e+002 1.0000000e-006 8.0000001e+001
         vertex 9.2754755e+002 1.0000000e-006 1.0000003e-006
      endloop
   endfacet
   facet normal 0.0000000e+000 -1.0000000e+000 0.0000000e+000
      outer loop
         vertex 8.8254755e+002 1.0000000e-006 8.0000001e+001
         vertex 8.8254755e+002 1.0000000e-006 1.0000003e-006
         vertex 9.2754755e+002 1.0000000e-006 1.0000003e-006
      endloop
   endfacet
   facet normal -6.2172489e-016 -1.0000000e+000 -2.9605947e-015
      outer loop
         vertex 9.2754755e+002 2.2000001e+001 3.7000001e+001
         vertex 9.4754755e+002 2.2000001e+001 4.0000001e+001
         vertex 9.2754755e+002 2.2000001e+001 4.3000001e+001
      endloop
   endfacet
   facet normal 8.2621248e-017 -1.0000000e+000 4.8009644e-016
      outer loop
         vertex 8.8454755e+002 2.2000001e+001 3.7000001e+001
         vertex 8.8454755e+002 2.2000001e+001 1.0000003e-006
         vertex 9.2754755e+002 2.2000001e+001 3.7000001e+001
      endloop
   endfacet
   facet normal -0.0000000e+000 -1.0000000e+000 0.0000000e+000
      outer loop
         vertex 1.0325476e+003 2.2000001e+001 1.0000003e-006
         vertex 9.5754755e+002 2.2000001e+001 3.0000001e+001
         vertex 8.8454755e+002 2.2000001e+001 1.0000003e-006
      endloop
   endfacet
   facet normal 0.0000000e+000 -1.0000000e+000 -0.0000000e+000
      outer loop
         vertex 1.0325476e+003 2.2000001e+001 8.0000001e+001
         vertex 9.6754755e+002 2.2000001e+001 4.0000001e+001
         vertex 1.0325476e+003 2.2000001e+001 1.0000003e-006
      endloop
   endfacet
   facet normal 0.0000000e+000 -1.0000000e+000 0.0000000e+000
      outer loop
         vertex 8.8454755e+002 2.2000001e+001 8.0000001e+001
         vertex 9.5754755e+002 2.2000001e+001 5.0000001e+001
         vertex 1.0325476e+003 2.2000001e+001 8.0000001e+001
      endloop
   endfacet
   facet normal 8.2621248e-017 -1.0000000e+000 0.0000000e+000
      outer loop
         vertex 8.8454755e+002 2.2000001e+001 4.3000001e+001
         vertex 9.2754755e+002 2.2000001e+001 4.3000001e+001
         vertex 8.8454755e+002 2.2000001e+001 8.0000001e+001
      endloop
   endfacet
   facet normal -1.7419569e-016 -1.0000000e+000 2.2933298e-017
      outer loop
         vertex 9.4754755e+002 2.2000001e+001 4.0000001e+001
         vertex 9.4788829e+002 2.2000001e+001 4.2588191e+001
         vertex 9.2754755e+002 2.2000001e+001 4.3000001e+001
      endloop
   endfacet
   facet normal -1.7320747e-016 -1.0000000e+000 7.1744884e-017
      outer loop
         vertex 9.4788829e+002 2.2000001e+001 4.2588191e+001
         vertex 9.4888730e+002 2.2000001e+001 4.5000001e+001
         vertex 9.2754755e+002 2.2000001e+001 4.3000001e+001
      endloop
   endfacet
   facet normal -1.7938385e-016 -1.0000000e+000 1.3764607e-016
      outer loop
         vertex 9.4888730e+002 2.2000001e+001 4.5000001e+001
         vertex 9.5047648e+002 2.2000001e+001 4.7071069e+001
         vertex 9.2754755e+002 2.2000001e+001 4.3000001e+001
      endloop
   endfacet
   facet normal -2.0159056e-016 -1.0000000e+000 2.6271793e-016
      outer loop
         vertex 9.5047648e+002 2.2000001e+001 4.7071069e+001
         vertex 9.5254755e+002 2.2000001e+001 4.8660255e+001
         vertex 9.2754755e+002 2.2000001e+001 4.3000001e+001
      endloop
   endfacet
   facet normal -9.5294428e-017 -1.0000000e+000 -2.0676687e-016
      outer loop
         vertex 9.2754755e+002 2.2000001e+001 4.3000001e+001
         vertex 9.5254755e+002 2.2000001e+001 4.8660255e+001
         vertex 8.8454755e+002 2.2000001e+001 8.0000001e+001
      endloop
   endfacet
   facet normal 0.0000000e+000 -1.0000000e+000 0.0000000e+000
      outer loop
         vertex 9.5254755e+002 2.2000001e+001 4.8660255e+001
         vertex 9.5495936e+002 2.2000001e+001 4.9659259e+001
         vertex 8.8454755e+002 2.2000001e+001 8.0000001e+001
      endloop
   endfacet
   facet normal 0.0000000e+000 -1.0000000e+000 0.0000000e+000
      outer loop
         vertex 9.5754755e+002 2.2000001e+001 5.0000001e+001
         vertex 9.6013574e+002 2.2000001e+001 4.9659259e+001
         vertex 1.0325476e+003 2.2000001e+001 8.0000001e+001
      endloop
   endfacet
   facet normal 0.0000000e+000 -1.0000000e+000 0.0000000e+000
      outer loop
         vertex 9.6013574e+002 2.2000001e+001 4.9659259e+001
         vertex 9.6254755e+002 2.2000001e+001 4.8660255e+001
         vertex 1.0325476e+003 2.2000001e+001 8.0000001e+001
      endloop
   endfacet
   facet normal 0.0000000e+000 -1.0000000e+000 0.0000000e+000
      outer loop
         vertex 9.6254755e+002 2.2000001e+001 4.8660255e+001
         vertex 9.6461862e+002 2.2000001e+001 4.7071069e+001
         vertex 1.0325476e+003 2.2000001e+001 8.0000001e+001
      endloop
   endfacet
   facet normal 0.0000000e+000 -1.0000000e+000 0.0000000e+000
      outer loop
         vertex 9.6461862e+002 2.2000001e+001 4.7071069e+001
         vertex 9.6620781e+002 2.2000001e+001 4.5000001e+001
         vertex 1.0325476e+003 2.2000001e+001 8.0000001e+001
      endloop
   endfacet
   facet normal 0.0000000e+000 -1.0000000e+000 0.0000000e+000
      outer loop
         vertex 9.6620781e+002 2.2000001e+001 4.5000001e+001
         vertex 9.6720681e+002 2.2000001e+001 4.2588191e+001
         vertex 1.0325476e+003 2.2000001e+001 8.0000001e+001
      endloop
   endfacet
   facet normal 0.0000000e+000 -1.0000000e+000 0.0000000e+000
      outer loop
         vertex 9.6720681e+002 2.2000001e+001 4.2588191e+001
         vertex 9.6754755e+002 2.2000001e+001 4.0000001e+001
         vertex 1.0325476e+003 2.2000001e+001 8.0000001e+001
      endloop
   endfacet
   facet normal 0.0000000e+000 -1.0000000e+000 -0.0000000e+000
      outer loop
         vertex 9.6754755e+002 2.2000001e+001 4.0000001e+001
         vertex 9.6720681e+002 2.2000001e+001 3.7411811e+001
         vertex 1.0325476e+003 2.2000001e+001 1.0000003e-006
      endloop
   endfacet
   facet normal 0.0000000e+000 -1.0000000e+000 -0.0000000e+000
      outer loop
         vertex 9.6720681e+002 2.2000001e+001 3.7411811e+001
         vertex 9.6620781e+002 2.2000001e+001 3.5000001e+001
         vertex 1.0325476e+003 2.2000001e+001 1.0000003e-006
      endloop
   endfacet
   facet normal 0.0000000e+000 -1.0000000e+000 -0.0000000e+000
      outer loop
         vertex 9.6620781e+002 2.2000001e+001 3.5000001e+001
         vertex 9.6461862e+002 2.2000001e+001 3.2928933e+001
         vertex 1.0325476e+003 2.2000001e+001 1.0000003e-006
      endloop
   endfacet
   facet normal 0.0000000e+000 -1.0000000e+000 -0.0000000e+000
      outer loop
         vertex 9.6461862e+002 2.2000001e+001 3.2928933e+001
         vertex 9.6254755e+002 2.2000001e+001 3.1339747e+001
         vertex 1.0325476e+003 2.2000001e+001 1.0000003e-006
      endloop
   endfacet
   facet normal 0.0000000e+000 -1.0000000e+000 -0.0000000e+000
      outer loop
         vertex 9.6254755e+002 2.2000001e+001 3.1339747e+001
         vertex 9.6013574e+002 2.2000001e+001 3.0340743e+001
         vertex 1.0325476e+003 2.2000001e+001 1.0000003e-006
      endloop
   endfacet
   facet normal 0.0000000e+000 -1.0000000e+000 -0.0000000e+000
      outer loop
         vertex 9.6013574e+002 2.2000001e+001 3.0340743e+001
         vertex 9.5754755e+002 2.2000001e+001 3.0000001e+001
         vertex 1.0325476e+003 2.2000001e+001 1.0000003e-006
      endloop
   endfacet
   facet normal -0.0000000e+000 -1.0000000e+000 0.0000000e+000
      outer loop
         vertex 9.5754755e+002 2.2000001e+001 3.0000001e+001
         vertex 9.5495936e+002 2.2000001e+001 3.0340743e+001
         vertex 8.8454755e+002 2.2000001e+001 1.0000003e-006
      endloop
   endfacet
   facet normal -0.0000000e+000 -1.0000000e+000 0.0000000e+000
      outer loop
         vertex 9.5495936e+002 2.2000001e+001 3.0340743e+001
         vertex 9.5254755e+002 2.2000001e+001 3.1339747e+001
         vertex 8.8454755e+002 2.2000001e+001 1.0000003e-006
      endloop
   endfacet
   facet normal -5.7176657e-016 -1.0000000e+000 1.2406012e-015
      outer loop
         vertex 8.8454755e+002 2.2000001e+001 1.0000003e-006
         vertex 9.5254755e+002 2.2000001e+001 3.1339747e+001
         vertex 9.2754755e+002 2.2000001e+001 3.7000001e+001
      endloop
   endfacet
   facet normal -1.2095433e-015 -1.0000000e+000 -1.5763076e-015
      outer loop
         vertex 9.5254755e+002 2.2000001e+001 3.1339747e+001
         vertex 9.5047648e+002 2.2000001e+001 3.2928933e+001
         vertex 9.2754755e+002 2.2000001e+001 3.7000001e+001
      endloop
   endfacet
   facet normal -1.0763031e-015 -1.0000000e+000 -8.2587642e-016
      outer loop
         vertex 9.5047648e+002 2.2000001e+001 3.2928933e+001
         vertex 9.4888730e+002 2.2000001e+001 3.5000001e+001
         vertex 9.2754755e+002 2.2000001e+001 3.7000001e+001
      endloop
   endfacet
   facet normal -1.0392448e-015 -1.0000000e+000 -4.3046930e-016
      outer loop
         vertex 9.4888730e+002 2.2000001e+001 3.5000001e+001
         vertex 9.4788829e+002 2.2000001e+001 3.7411811e+001
         vertex 9.2754755e+002 2.2000001e+001 3.7000001e+001
      endloop
   endfacet
   facet normal -0.0000000e+000 -1.0000000e+000 -0.0000000e+000
      outer loop
         vertex 9.5754755e+002 2.2000001e+001 5.0000001e+001
         vertex 8.8454755e+002 2.2000001e+001 8.0000001e+001
         vertex 9.5495936e+002 2.2000001e+001 4.9659259e+001
      endloop
   endfacet
   facet normal -1.0451741e-015 -1.0000000e+000 -1.3759979e-016
      outer loop
         vertex 9.4754755e+002 2.2000001e+001 4.0000001e+001
         vertex 9.2754755e+002 2.2000001e+001 3.7000001e+001
         vertex 9.4788829e+002 2.2000001e+001 3.7411811e+001
      endloop
   endfacet
   facet normal -0.0000000e+000 1.0000000e+000 0.0000000e+000
      outer loop
         vertex 8.8454755e+002 2.4000001e+001 2.0000010e+000
         vertex 9.0254755e+002 2.4000001e+001 1.9405137e+001
         vertex 1.0305476e+003 2.4000001e+001 2.0000010e+000
      endloop
   endfacet
   facet normal 0.0000000e+000 1.0000000e+000 -0.0000000e+000
      outer loop
         vertex 9.0254755e+002 2.4000001e+001 1.9405137e+001
         vertex 8.8454755e+002 2.4000001e+001 2.0000010e+000
         vertex 9.0054755e+002 2.4000001e+001 1.9405137e+001
      endloop
   endfacet
   facet normal 0.0000000e+000 1.0000000e+000 0.0000000e+000
      outer loop
         vertex 1.0305476e+003 2.4000001e+001 8.0000001e+001
         vertex 9.0254755e+002 2.4000001e+001 7.9405137e+001
         vertex 8.8454755e+002 2.4000001e+001 8.0000001e+001
      endloop
   endfacet
   facet normal 0.0000000e+000 1.0000000e+000 -0.0000000e+000
      outer loop
         vertex 1.0305476e+003 2.4000001e+001 2.0000010e+000
         vertex 9.6754755e+002 2.4000001e+001 4.0000001e+001
         vertex 1.0305476e+003 2.4000001e+001 8.0000001e+001
      endloop
   endfacet
   facet normal 0.0000000e+000 1.0000000e+000 -0.0000000e+000
      outer loop
         vertex 9.6754755e+002 2.4000001e+001 4.0000001e+001
         vertex 9.6720681e+002 2.4000001e+001 4.2588191e+001
         vertex 1.0305476e+003 2.4000001e+001 8.0000001e+001
      endloop
   endfacet
   facet normal 0.0000000e+000 1.0000000e+000 -0.0000000e+000
      outer loop
         vertex 9.6720681e+002 2.4000001e+001 4.2588191e+001
         vertex 9.6620781e+002 2.4000001e+001 4.5000001e+001
         vertex 1.0305476e+003 2.4000001e+001 8.0000001e+001
      endloop
   endfacet
   facet normal 0.0000000e+000 1.0000000e+000 -0.0000000e+000
      outer loop
         vertex 9.6620781e+002 2.4000001e+001 4.5000001e+001
         vertex 9.6461862e+002 2.4000001e+001 4.7071069e+001
         vertex 1.0305476e+003 2.4000001e+001 8.0000001e+001
      endloop
   endfacet
   facet normal 0.0000000e+000 1.0000000e+000 -0.0000000e+000
      outer loop
         vertex 9.6461862e+002 2.4000001e+001 4.7071069e+001
         vertex 9.6254755e+002 2.4000001e+001 4.8660255e+001
         vertex 1.0305476e+003 2.4000001e+001 8.0000001e+001
      endloop
   endfacet
   facet normal 0.0000000e+000 1.0000000e+000 -0.0000000e+000
      outer loop
         vertex 9.6254755e+002 2.4000001e+001 4.8660255e+001
         vertex 9.6013574e+002 2.4000001e+001 4.9659259e+001
         vertex 1.0305476e+003 2.4000001e+001 8.0000001e+001
      endloop
   endfacet
   facet normal 0.0000000e+000 1.0000000e+000 -0.0000000e+000
      outer loop
         vertex 9.6013574e+002 2.4000001e+001 4.9659259e+001
         vertex 9.5754755e+002 2.4000001e+001 5.0000001e+001
         vertex 1.0305476e+003 2.4000001e+001 8.0000001e+001
      endloop
   endfacet
   facet normal 0.0000000e+000 1.0000000e+000 0.0000000e+000
      outer loop
         vertex 1.0305476e+003 2.4000001e+001 8.0000001e+001
         vertex 9.5754755e+002 2.4000001e+001 5.0000001e+001
         vertex 9.0254755e+002 2.4000001e+001 7.9405137e+001
      endloop
   endfacet
   facet normal 0.0000000e+000 1.0000000e+000 0.0000000e+000
      outer loop
         vertex 9.5754755e+002 2.4000001e+001 5.0000001e+001
         vertex 9.5495936e+002 2.4000001e+001 4.9659259e+001
         vertex 9.0254755e+002 2.4000001e+001 7.9405137e+001
      endloop
   endfacet
   facet normal 0.0000000e+000 1.0000000e+000 0.0000000e+000
      outer loop
         vertex 9.5495936e+002 2.4000001e+001 4.9659259e+001
         vertex 9.5254755e+002 2.4000001e+001 4.8660255e+001
         vertex 9.0254755e+002 2.4000001e+001 7.9405137e+001
      endloop
   endfacet
   facet normal 0.0000000e+000 1.0000000e+000 0.0000000e+000
      outer loop
         vertex 9.5254755e+002 2.4000001e+001 4.8660255e+001
         vertex 9.5047648e+002 2.4000001e+001 4.7071069e+001
         vertex 9.0254755e+002 2.4000001e+001 7.9405137e+001
      endloop
   endfacet
   facet normal 0.0000000e+000 1.0000000e+000 0.0000000e+000
      outer loop
         vertex 9.5047648e+002 2.4000001e+001 4.7071069e+001
         vertex 9.4888730e+002 2.4000001e+001 4.5000001e+001
         vertex 9.0254755e+002 2.4000001e+001 7.9405137e+001
      endloop
   endfacet
   facet normal 0.0000000e+000 1.0000000e+000 -0.0000000e+000
      outer loop
         vertex 9.4754755e+002 2.4000001e+001 4.0000001e+001
         vertex 9.0254755e+002 2.4000001e+001 1.9405137e+001
         vertex 9.4788829e+002 2.4000001e+001 4.2588191e+001
      endloop
   endfacet
   facet normal 0.0000000e+000 1.0000000e+000 0.0000000e+000
      outer loop
         vertex 9.4754755e+002 2.4000001e+001 4.0000001e+001
         vertex 9.4788829e+002 2.4000001e+001 3.7411811e+001
         vertex 9.0254755e+002 2.4000001e+001 1.9405137e+001
      endloop
   endfacet
   facet normal 0.0000000e+000 1.0000000e+000 0.0000000e+000
      outer loop
         vertex 9.4788829e+002 2.4000001e+001 3.7411811e+001
         vertex 9.4888730e+002 2.4000001e+001 3.5000001e+001
         vertex 9.0254755e+002 2.4000001e+001 1.9405137e+001
      endloop
   endfacet
   facet normal 0.0000000e+000 1.0000000e+000 0.0000000e+000
      outer loop
         vertex 9.4888730e+002 2.4000001e+001 3.5000001e+001
         vertex 9.5047648e+002 2.4000001e+001 3.2928933e+001
         vertex 9.0254755e+002 2.4000001e+001 1.9405137e+001
      endloop
   endfacet
   facet normal 0.0000000e+000 1.0000000e+000 0.0000000e+000
      outer loop
         vertex 9.5047648e+002 2.4000001e+001 3.2928933e+001
         vertex 9.5254755e+002 2.4000001e+001 3.1339747e+001
         vertex 9.0254755e+002 2.4000001e+001 1.9405137e+001
      endloop
   endfacet
   facet normal 0.0000000e+000 1.0000000e+000 0.0000000e+000
      outer loop
         vertex 9.5254755e+002 2.4000001e+001 3.1339747e+001
         vertex 9.5495936e+002 2.4000001e+001 3.0340743e+001
         vertex 9.0254755e+002 2.4000001e+001 1.9405137e+001
      endloop
   endfacet
   facet normal 0.0000000e+000 1.0000000e+000 0.0000000e+000
      outer loop
         vertex 9.5495936e+002 2.4000001e+001 3.0340743e+001
         vertex 9.5754755e+002 2.4000001e+001 3.0000001e+001
         vertex 9.0254755e+002 2.4000001e+001 1.9405137e+001
      endloop
   endfacet
   facet normal -0.0000000e+000 1.0000000e+000 0.0000000e+000
      outer loop
         vertex 9.0254755e+002 2.4000001e+001 1.9405137e+001
         vertex 9.5754755e+002 2.4000001e+001 3.0000001e+001
         vertex 1.0305476e+003 2.4000001e+001 2.0000010e+000
      endloop
   endfacet
   facet normal -0.0000000e+000 1.0000000e+000 0.0000000e+000
      outer loop
         vertex 9.5754755e+002 2.4000001e+001 3.0000001e+001
         vertex 9.6013574e+002 2.4000001e+001 3.0340743e+001
         vertex 1.0305476e+003 2.4000001e+001 2.0000010e+000
      endloop
   endfacet
   facet normal -0.0000000e+000 1.0000000e+000 0.0000000e+000
      outer loop
         vertex 9.6013574e+002 2.4000001e+001 3.0340743e+001
         vertex 9.6254755e+002 2.4000001e+001 3.1339747e+001
         vertex 1.0305476e+003 2.4000001e+001 2.0000010e+000
      endloop
   endfacet
   facet normal -0.0000000e+000 1.0000000e+000 0.0000000e+000
      outer loop
         vertex 9.6254755e+002 2.4000001e+001 3.1339747e+001
         vertex 9.6461862e+002 2.4000001e+001 3.2928933e+001
         vertex 1.0305476e+003 2.4000001e+001 2.0000010e+000
      endloop
   endfacet
   facet normal -0.0000000e+000 1.0000000e+000 0.0000000e+000
      outer loop
         vertex 9.6461862e+002 2.4000001e+001 3.2928933e+001
         vertex 9.6620781e+002 2.4000001e+001 3.5000001e+001
         vertex 1.0305476e+003 2.4000001e+001 2.0000010e+000
      endloop
   endfacet
   facet normal -0.0000000e+000 1.0000000e+000 0.0000000e+000
      outer loop
         vertex 9.6620781e+002 2.4000001e+001 3.5000001e+001
         vertex 9.6720681e+002 2.4000001e+001 3.7411811e+001
         vertex 1.0305476e+003 2.4000001e+001 2.0000010e+000
      endloop
   endfacet
   facet normal 0.0000000e+000 1.0000000e+000 0.0000000e+000
      outer loop
         vertex 9.0254755e+002 2.4000001e+001 7.9405137e+001
         vertex 9.0054755e+002 2.4000001e+001 7.9405137e+001
         vertex 8.8454755e+002 2.4000001e+001 8.0000001e+001
      endloop
   endfacet
   facet normal 0.0000000e+000 1.0000000e+000 0.0000000e+000
      outer loop
         vertex 9.0054755e+002 2.4000001e+001 7.9405137e+001
         vertex 9.0054755e+002 2.4000001e+001 1.9405137e+001
         vertex 8.8454755e+002 2.4000001e+001 8.0000001e+001
      endloop
   endfacet
   facet normal 0.0000000e+000 1.0000000e+000 0.0000000e+000
      outer loop
         vertex 8.8454755e+002 2.4000001e+001 8.0000001e+001
         vertex 9.0054755e+002 2.4000001e+001 1.9405137e+001
         vertex 8.8454755e+002 2.4000001e+001 2.0000010e+000
      endloop
   endfacet
   facet normal -0.0000000e+000 1.0000000e+000 0.0000000e+000
      outer loop
         vertex 9.0254755e+002 2.4000001e+001 1.9405137e+001
         vertex 9.0254755e+002 2.4000001e+001 7.9405137e+001
         vertex 9.4788829e+002 2.4000001e+001 4.2588191e+001
      endloop
   endfacet
   facet normal 0.0000000e+000 1.0000000e+000 0.0000000e+000
      outer loop
         vertex 9.6754755e+002 2.4000001e+001 4.0000001e+001
         vertex 1.0305476e+003 2.4000001e+001 2.0000010e+000
         vertex 9.6720681e+002 2.4000001e+001 3.7411811e+001
      endloop
   endfacet
   facet normal 0.0000000e+000 1.0000000e+000 0.0000000e+000
      outer loop
         vertex 9.0254755e+002 2.4000001e+001 7.9405137e+001
         vertex 9.4888730e+002 2.4000001e+001 4.5000001e+001
         vertex 9.4788829e+002 2.4000001e+001 4.2588191e+001
      endloop
   endfacet
   facet normal -1.0000000e+000 7.2001664e-013 0.0000000e+000
      outer loop
         vertex 1.0305476e+003 1.3200000e+002 7.8000001e+001
         vertex 1.0305476e+003 1.3200000e+002 2.0000010e+000
         vertex 1.0305476e+003 1.2000000e+002 7.8000001e+001
      endloop
   endfacet
   facet normal -1.0000000e+000 1.4937210e-013 -9.0101769e-014
      outer loop
         vertex 1.0305476e+003 1.2000000e+002 7.8000001e+001
         vertex 1.0305476e+003 1.3200000e+002 2.0000010e+000
         vertex 1.0305476e+003 7.4000001e+001 1.9405137e+001
      endloop
   endfacet
   facet normal -1.0000000e+000 3.4600342e-014 0.0000000e+000
      outer loop
         vertex 1.0305476e+003 1.2000000e+002 7.8000001e+001
         vertex 1.0305476e+003 7.4000001e+001 1.9405137e+001
         vertex 1.0305476e+003 7.4000001e+001 7.9405137e+001
      endloop
   endfacet
   facet normal -1.0000000e+000 3.4600342e-014 0.0000000e+000
      outer loop
         vertex 1.0305476e+003 1.2000000e+002 7.8000001e+001
         vertex 1.0305476e+003 7.4000001e+001 7.9405137e+001
         vertex 1.0305476e+003 1.2000000e+002 8.0000001e+001
      endloop
   endfacet
   facet normal -1.0000000e+000 -3.3158661e-014 0.0000000e+000
      outer loop
         vertex 1.0305476e+003 2.4000001e+001 8.0000001e+001
         vertex 1.0305476e+003 7.2000001e+001 1.9405137e+001
         vertex 1.0305476e+003 2.4000001e+001 2.0000010e+000
      endloop
   endfacet
   facet normal -1.0000000e+000 -3.3158661e-014 0.0000000e+000
      outer loop
         vertex 1.0305476e+003 7.2000001e+001 1.9405137e+001
         vertex 1.0305476e+003 2.4000001e+001 8.0000001e+001
         vertex 1.0305476e+003 7.2000001e+001 7.9405137e+001
      endloop
   endfacet
   facet normal -1.0000000e+000 0.0000000e+000 -9.1445176e-014
      outer loop
         vertex 1.0305476e+003 7.2000001e+001 1.9405137e+001
         vertex 1.0305476e+003 7.4000001e+001 1.9405137e+001
         vertex 1.0305476e+003 2.4000001e+001 2.0000010e+000
      endloop
   endfacet
   facet normal -1.0000000e+000 0.0000000e+000 2.6755963e-012
      outer loop
         vertex 1.0305476e+003 7.4000001e+001 7.9405137e+001
         vertex 1.0305476e+003 7.2000001e+001 7.9405137e+001
         vertex 1.0305476e+003 1.2000000e+002 8.0000001e+001
      endloop
   endfacet
   facet normal -1.0000000e+000 0.0000000e+000 2.6755963e-012
      outer loop
         vertex 1.0305476e+003 1.2000000e+002 8.0000001e+001
         vertex 1.0305476e+003 7.2000001e+001 7.9405137e+001
         vertex 1.0305476e+003 2.4000001e+001 8.0000001e+001
      endloop
   endfacet
   facet normal -1.0000000e+000 8.0001849e-014 -3.2126771e-013
      outer loop
         vertex 1.0305476e+003 2.4000001e+001 2.0000010e+000
         vertex 1.0305476e+003 7.4000001e+001 1.9405137e+001
         vertex 1.0305476e+003 1.3200000e+002 2.0000010e+000
      endloop
   endfacet
   facet normal -9.9144486e-001 4.6372219e-016 1.3052619e-001
      outer loop
         vertex 9.6720681e+002 2.4000001e+001 3.7411811e+001
         vertex 9.6720681e+002 2.2000001e+001 3.7411811e+001
         vertex 9.6754755e+002 2.4000001e+001 4.0000001e+001
      endloop
   endfacet
   facet normal -9.2387953e-001 1.3595647e-015 3.8268343e-001
      outer loop
         vertex 9.6720681e+002 2.2000001e+001 3.7411811e+001
         vertex 9.6720681e+002 2.4000001e+001 3.7411811e+001
         vertex 9.6620781e+002 2.2000001e+001 3.5000001e+001
      endloop
   endfacet
   facet normal -7.9335334e-001 -4.2934161e-014 6.0876143e-001
      outer loop
         vertex 9.6461862e+002 2.4000001e+001 3.2928933e+001
         vertex 9.6461862e+002 2.2000001e+001 3.2928933e+001
         vertex 9.6620781e+002 2.4000001e+001 3.5000001e+001
      endloop
   endfacet
   facet normal -6.0876143e-001 -3.1785524e-014 7.9335334e-001
      outer loop
         vertex 9.6461862e+002 2.2000001e+001 3.2928933e+001
         vertex 9.6461862e+002 2.4000001e+001 3.2928933e+001
         vertex 9.6254755e+002 2.2000001e+001 3.1339747e+001
      endloop
   endfacet
   facet normal -3.8268343e-001 1.6411397e-015 9.2387953e-001
      outer loop
         vertex 9.6013574e+002 2.4000001e+001 3.0340743e+001
         vertex 9.6013574e+002 2.2000001e+001 3.0340743e+001
         vertex 9.6254755e+002 2.4000001e+001 3.1339747e+001
      endloop
   endfacet
   facet normal -1.3052619e-001 1.7611599e-015 9.9144486e-001
      outer loop
         vertex 9.6013574e+002 2.2000001e+001 3.0340743e+001
         vertex 9.6013574e+002 2.4000001e+001 3.0340743e+001
         vertex 9.5754755e+002 2.2000001e+001 3.0000001e+001
      endloop
   endfacet
   facet normal 1.3052619e-001 -1.7611599e-015 9.9144486e-001
      outer loop
         vertex 9.5495936e+002 2.4000001e+001 3.0340743e+001
         vertex 9.5495936e+002 2.2000001e+001 3.0340743e+001
         vertex 9.5754755e+002 2.4000001e+001 3.0000001e+001
      endloop
   endfacet
   facet normal 3.8268343e-001 -1.6411397e-015 9.2387953e-001
      outer loop
         vertex 9.5495936e+002 2.2000001e+001 3.0340743e+001
         vertex 9.5495936e+002 2.4000001e+001 3.0340743e+001
         vertex 9.5254755e+002 2.2000001e+001 3.1339747e+001
      endloop
   endfacet
   facet normal 6.0876143e-001 3.1785524e-014 7.9335334e-001
      outer loop
         vertex 9.5047648e+002 2.4000001e+001 3.2928933e+001
         vertex 9.5047648e+002 2.2000001e+001 3.2928933e+001
         vertex 9.5254755e+002 2.4000001e+001 3.1339747e+001
      endloop
   endfacet
   facet normal 7.9335334e-001 4.2934161e-014 6.0876143e-001
      outer loop
         vertex 9.5047648e+002 2.2000001e+001 3.2928933e+001
         vertex 9.5047648e+002 2.4000001e+001 3.2928933e+001
         vertex 9.4888730e+002 2.2000001e+001 3.5000001e+001
      endloop
   endfacet
   facet normal 9.2387953e-001 -1.3595647e-015 3.8268343e-001
      outer loop
         vertex 9.4788829e+002 2.4000001e+001 3.7411811e+001
         vertex 9.4788829e+002 2.2000001e+001 3.7411811e+001
         vertex 9.4888730e+002 2.4000001e+001 3.5000001e+001
      endloop
   endfacet
   facet normal 9.9144486e-001 -4.6372219e-016 1.3052619e-001
      outer loop
         vertex 9.4788829e+002 2.2000001e+001 3.7411811e+001
         vertex 9.4788829e+002 2.4000001e+001 3.7411811e+001
         vertex 9.4754755e+002 2.2000001e+001 4.0000001e+001
      endloop
   endfacet
   facet normal 9.9144486e-001 4.6372219e-016 -1.3052619e-001
      outer loop
         vertex 9.4788829e+002 2.4000001e+001 4.2588191e+001
         vertex 9.4788829e+002 2.2000001e+001 4.2588191e+001
         vertex 9.4754755e+002 2.4000001e+001 4.0000001e+001
      endloop
   endfacet
   facet normal 9.2387953e-001 1.3595647e-015 -3.8268343e-001
      outer loop
         vertex 9.4788829e+002 2.2000001e+001 4.2588191e+001
         vertex 9.4788829e+002 2.4000001e+001 4.2588191e+001
         vertex 9.4888730e+002 2.2000001e+001 4.5000001e+001
      endloop
   endfacet
   facet normal 7.9335334e-001 0.0000000e+000 -6.0876143e-001
      outer loop
         vertex 9.5047648e+002 2.4000001e+001 4.7071069e+001
         vertex 9.5047648e+002 2.2000001e+001 4.7071069e+001
         vertex 9.4888730e+002 2.4000001e+001 4.5000001e+001
      endloop
   endfacet
   facet normal 6.0876143e-001 0.0000000e+000 -7.9335334e-001
      outer loop
         vertex 9.5047648e+002 2.2000001e+001 4.7071069e+001
         vertex 9.5047648e+002 2.4000001e+001 4.7071069e+001
         vertex 9.5254755e+002 2.2000001e+001 4.8660255e+001
      endloop
   endfacet
   facet normal 3.8268343e-001 0.0000000e+000 -9.2387953e-001
      outer loop
         vertex 9.5495936e+002 2.4000001e+001 4.9659259e+001
         vertex 9.5495936e+002 2.2000001e+001 4.9659259e+001
         vertex 9.5254755e+002 2.4000001e+001 4.8660255e+001
      endloop
   endfacet
   facet normal 1.3052619e-001 0.0000000e+000 -9.9144486e-001
      outer loop
         vertex 9.5495936e+002 2.2000001e+001 4.9659259e+001
         vertex 9.5495936e+002 2.4000001e+001 4.9659259e+001
         vertex 9.5754755e+002 2.2000001e+001 5.0000001e+001
      endloop
   endfacet
   facet normal -1.3052619e-001 -0.0000000e+000 -9.9144486e-001
      outer loop
         vertex 9.6013574e+002 2.4000001e+001 4.9659259e+001
         vertex 9.6013574e+002 2.2000001e+001 4.9659259e+001
         vertex 9.5754755e+002 2.4000001e+001 5.0000001e+001
      endloop
   endfacet
   facet normal -3.8268343e-001 0.0000000e+000 -9.2387953e-001
      outer loop
         vertex 9.6013574e+002 2.2000001e+001 4.9659259e+001
         vertex 9.6013574e+002 2.4000001e+001 4.9659259e+001
         vertex 9.6254755e+002 2.2000001e+001 4.8660255e+001
      endloop
   endfacet
   facet normal -6.0876143e-001 -0.0000000e+000 -7.9335334e-001
      outer loop
         vertex 9.6461862e+002 2.4000001e+001 4.7071069e+001
         vertex 9.6461862e+002 2.2000001e+001 4.7071069e+001
         vertex 9.6254755e+002 2.4000001e+001 4.8660255e+001
      endloop
   endfacet
   facet normal -7.9335334e-001 0.0000000e+000 -6.0876143e-001
      outer loop
         vertex 9.6461862e+002 2.2000001e+001 4.7071069e+001
         vertex 9.6461862e+002 2.4000001e+001 4.7071069e+001
         vertex 9.6620781e+002 2.2000001e+001 4.5000001e+001
      endloop
   endfacet
   facet normal -9.2387953e-001 -1.3595647e-015 -3.8268343e-001
      outer loop
         vertex 9.6720681e+002 2.4000001e+001 4.2588191e+001
         vertex 9.6720681e+002 2.2000001e+001 4.2588191e+001
         vertex 9.6620781e+002 2.4000001e+001 4.5000001e+001
      endloop
   endfacet
   facet normal -9.9144486e-001 -4.6372219e-016 -1.3052619e-001
      outer loop
         vertex 9.6720681e+002 2.2000001e+001 4.2588191e+001
         vertex 9.6720681e+002 2.4000001e+001 4.2588191e+001
         vertex 9.6754755e+002 2.2000001e+001 4.0000001e+001
      endloop
   endfacet
   facet normal 9.2387953e-001 -1.3595647e-015 3.8268343e-001
      outer loop
         vertex 9.4788829e+002 2.2000001e+001 3.7411811e+001
         vertex 9.4888730e+002 2.2000001e+001 3.5000001e+001
         vertex 9.4888730e+002 2.4000001e+001 3.5000001e+001
      endloop
   endfacet
   facet normal 7.9335334e-001 -2.1627551e-015 6.0876143e-001
      outer loop
         vertex 9.4888730e+002 2.4000001e+001 3.5000001e+001
         vertex 9.4888730e+002 2.2000001e+001 3.5000001e+001
         vertex 9.5047648e+002 2.4000001e+001 3.2928933e+001
      endloop
   endfacet
   facet normal 6.0876143e-001 -1.4092786e-015 7.9335334e-001
      outer loop
         vertex 9.5047648e+002 2.2000001e+001 3.2928933e+001
         vertex 9.5254755e+002 2.2000001e+001 3.1339747e+001
         vertex 9.5254755e+002 2.4000001e+001 3.1339747e+001
      endloop
   endfacet
   facet normal 3.8268343e-001 -1.6411397e-015 9.2387953e-001
      outer loop
         vertex 9.5254755e+002 2.4000001e+001 3.1339747e+001
         vertex 9.5254755e+002 2.2000001e+001 3.1339747e+001
         vertex 9.5495936e+002 2.4000001e+001 3.0340743e+001
      endloop
   endfacet
   facet normal 1.3052619e-001 -0.0000000e+000 9.9144486e-001
      outer loop
         vertex 9.5495936e+002 2.2000001e+001 3.0340743e+001
         vertex 9.5754755e+002 2.2000001e+001 3.0000001e+001
         vertex 9.5754755e+002 2.4000001e+001 3.0000001e+001
      endloop
   endfacet
   facet normal -1.3052619e-001 0.0000000e+000 9.9144486e-001
      outer loop
         vertex 9.5754755e+002 2.4000001e+001 3.0000001e+001
         vertex 9.5754755e+002 2.2000001e+001 3.0000001e+001
         vertex 9.6013574e+002 2.4000001e+001 3.0340743e+001
      endloop
   endfacet
   facet normal -3.8268343e-001 1.6411397e-015 9.2387953e-001
      outer loop
         vertex 9.6013574e+002 2.2000001e+001 3.0340743e+001
         vertex 9.6254755e+002 2.2000001e+001 3.1339747e+001
         vertex 9.6254755e+002 2.4000001e+001 3.1339747e+001
      endloop
   endfacet
   facet normal -6.0876143e-001 1.4092786e-015 7.9335334e-001
      outer loop
         vertex 9.6254755e+002 2.4000001e+001 3.1339747e+001
         vertex 9.6254755e+002 2.2000001e+001 3.1339747e+001
         vertex 9.6461862e+002 2.4000001e+001 3.2928933e+001
      endloop
   endfacet
   facet normal -7.9335334e-001 2.1627551e-015 6.0876143e-001
      outer loop
         vertex 9.6461862e+002 2.2000001e+001 3.2928933e+001
         vertex 9.6620781e+002 2.2000001e+001 3.5000001e+001
         vertex 9.6620781e+002 2.4000001e+001 3.5000001e+001
      endloop
   endfacet
   facet normal -9.2387953e-001 1.3595647e-015 3.8268343e-001
      outer loop
         vertex 9.6620781e+002 2.4000001e+001 3.5000001e+001
         vertex 9.6620781e+002 2.2000001e+001 3.5000001e+001
         vertex 9.6720681e+002 2.4000001e+001 3.7411811e+001
      endloop
   endfacet
   facet normal -9.9144486e-001 0.0000000e+000 1.3052619e-001
      outer loop
         vertex 9.6720681e+002 2.2000001e+001 3.7411811e+001
         vertex 9.6754755e+002 2.2000001e+001 4.0000001e+001
         vertex 9.6754755e+002 2.4000001e+001 4.0000001e+001
      endloop
   endfacet
   facet normal -9.9144486e-001 -0.0000000e+000 -1.3052619e-001
      outer loop
         vertex 9.6754755e+002 2.4000001e+001 4.0000001e+001
         vertex 9.6754755e+002 2.2000001e+001 4.0000001e+001
         vertex 9.6720681e+002 2.4000001e+001 4.2588191e+001
      endloop
   endfacet
   facet normal -9.2387953e-001 0.0000000e+000 -3.8268343e-001
      outer loop
         vertex 9.6720681e+002 2.2000001e+001 4.2588191e+001
         vertex 9.6620781e+002 2.2000001e+001 4.5000001e+001
         vertex 9.6620781e+002 2.4000001e+001 4.5000001e+001
      endloop
   endfacet
   facet normal -7.9335334e-001 -0.0000000e+000 -6.0876143e-001
      outer loop
         vertex 9.6620781e+002 2.4000001e+001 4.5000001e+001
         vertex 9.6620781e+002 2.2000001e+001 4.5000001e+001
         vertex 9.6461862e+002 2.4000001e+001 4.7071069e+001
      endloop
   endfacet
   facet normal -6.0876143e-001 -2.8185573e-015 -7.9335334e-001
      outer loop
         vertex 9.6461862e+002 2.2000001e+001 4.7071069e+001
         vertex 9.6254755e+002 2.2000001e+001 4.8660255e+001
         vertex 9.6254755e+002 2.4000001e+001 4.8660255e+001
      endloop
   endfacet
   facet normal -3.8268343e-001 -3.2822795e-015 -9.2387953e-001
      outer loop
         vertex 9.6254755e+002 2.4000001e+001 4.8660255e+001
         vertex 9.6254755e+002 2.2000001e+001 4.8660255e+001
         vertex 9.6013574e+002 2.4000001e+001 4.9659259e+001
      endloop
   endfacet
   facet normal -1.3052619e-001 0.0000000e+000 -9.9144486e-001
      outer loop
         vertex 9.6013574e+002 2.2000001e+001 4.9659259e+001
         vertex 9.5754755e+002 2.2000001e+001 5.0000001e+001
         vertex 9.5754755e+002 2.4000001e+001 5.0000001e+001
      endloop
   endfacet
   facet normal 1.3052619e-001 0.0000000e+000 -9.9144486e-001
      outer loop
         vertex 9.5754755e+002 2.4000001e+001 5.0000001e+001
         vertex 9.5754755e+002 2.2000001e+001 5.0000001e+001
         vertex 9.5495936e+002 2.4000001e+001 4.9659259e+001
      endloop
   endfacet
   facet normal 3.8268343e-001 3.2822795e-015 -9.2387953e-001
      outer loop
         vertex 9.5495936e+002 2.2000001e+001 4.9659259e+001
         vertex 9.5254755e+002 2.2000001e+001 4.8660255e+001
         vertex 9.5254755e+002 2.4000001e+001 4.8660255e+001
      endloop
   endfacet
   facet normal 6.0876143e-001 2.8185573e-015 -7.9335334e-001
      outer loop
         vertex 9.5254755e+002 2.4000001e+001 4.8660255e+001
         vertex 9.5254755e+002 2.2000001e+001 4.8660255e+001
         vertex 9.5047648e+002 2.4000001e+001 4.7071069e+001
      endloop
   endfacet
   facet normal 7.9335334e-001 0.0000000e+000 -6.0876143e-001
      outer loop
         vertex 9.5047648e+002 2.2000001e+001 4.7071069e+001
         vertex 9.4888730e+002 2.2000001e+001 4.5000001e+001
         vertex 9.4888730e+002 2.4000001e+001 4.5000001e+001
      endloop
   endfacet
   facet normal 9.2387953e-001 0.0000000e+000 -3.8268343e-001
      outer loop
         vertex 9.4888730e+002 2.4000001e+001 4.5000001e+001
         vertex 9.4888730e+002 2.2000001e+001 4.5000001e+001
         vertex 9.4788829e+002 2.4000001e+001 4.2588191e+001
      endloop
   endfacet
   facet normal 9.9144486e-001 0.0000000e+000 -1.3052619e-001
      outer loop
         vertex 9.4788829e+002 2.2000001e+001 4.2588191e+001
         vertex 9.4754755e+002 2.2000001e+001 4.0000001e+001
         vertex 9.4754755e+002 2.4000001e+001 4.0000001e+001
      endloop
   endfacet
   facet normal 9.9144486e-001 0.0000000e+000 1.3052619e-001
      outer loop
         vertex 9.4754755e+002 2.4000001e+001 4.0000001e+001
         vertex 9.4754755e+002 2.2000001e+001 4.0000001e+001
         vertex 9.4788829e+002 2.4000001e+001 3.7411811e+001
      endloop
   endfacet
   facet normal 1.0000000e+000 0.0000000e+000 -0.0000000e+000
      outer loop
         vertex 1.0105476e+003 1.2000000e+002 2.0000010e+000
         vertex 1.0105476e+003 1.2200000e+002 2.0000010e+000
         vertex 1.0105476e+003 1.2000000e+002 7.8000001e+001
      endloop
   endfacet
   facet normal 1.0000000e+000 0.0000000e+000 -0.0000000e+000
      outer loop
         vertex 1.0105476e+003 1.2200000e+002 2.0000010e+000
         vertex 1.0105476e+003 1.2200000e+002 7.8000001e+001
         vertex 1.0105476e+003 1.2000000e+002 7.8000001e+001
      endloop
   endfacet
   facet normal -0.0000000e+000 -1.0000000e+000 0.0000000e+000
      outer loop
         vertex 1.0105476e+003 1.2000000e+002 2.0000010e+000
         vertex 1.0105476e+003 1.2000000e+002 7.8000001e+001
         vertex 8.8454755e+002 1.2000000e+002 2.0000010e+000
      endloop
   endfacet
   facet normal -0.0000000e+000 -1.0000000e+000 0.0000000e+000
      outer loop
         vertex 1.0305476e+003 1.2000000e+002 7.8000001e+001
         vertex 1.0305476e+003 1.2000000e+002 8.0000001e+001
         vertex 1.0105476e+003 1.2000000e+002 7.8000001e+001
      endloop
   endfacet
   facet normal -0.0000000e+000 -1.0000000e+000 -0.0000000e+000
      outer loop
         vertex 1.0305476e+003 1.2000000e+002 8.0000001e+001
         vertex 8.8454755e+002 1.2000000e+002 8.0000001e+001
         vertex 1.0105476e+003 1.2000000e+002 7.8000001e+001
      endloop
   endfacet
   facet normal 0.0000000e+000 -1.0000000e+000 0.0000000e+000
      outer loop
         vertex 8.8454755e+002 1.2000000e+002 8.0000001e+001
         vertex 8.8454755e+002 1.2000000e+002 2.0000010e+000
         vertex 1.0105476e+003 1.2000000e+002 7.8000001e+001
      endloop
   endfacet
   facet normal 1.0000000e+000 0.0000000e+000 -0.0000000e+000
      outer loop
         vertex 8.8454755e+002 2.4000001e+001 2.0000010e+000
         vertex 8.8454755e+002 1.2000000e+002 2.0000010e+000
         vertex 8.8454755e+002 2.4000001e+001 8.0000001e+001
      endloop
   endfacet
   facet normal 1.0000000e+000 0.0000000e+000 -0.0000000e+000
      outer loop
         vertex 8.8454755e+002 1.2000000e+002 2.0000010e+000
         vertex 8.8454755e+002 1.2000000e+002 8.0000001e+001
         vertex 8.8454755e+002 2.4000001e+001 8.0000001e+001
      endloop
   endfacet
   facet normal 0.0000000e+000 0.0000000e+000 -1.0000000e+000
      outer loop
         vertex 8.8454755e+002 1.2200000e+002 7.8000001e+001
         vertex 8.8454755e+002 1.3200000e+002 7.8000001e+001
         vertex 1.0105476e+003 1.2200000e+002 7.8000001e+001
      endloop
   endfacet
   facet normal 0.0000000e+000 -0.0000000e+000 -1.0000000e+000
      outer loop
         vertex 8.8454755e+002 1.3200000e+002 7.8000001e+001
         vertex 1.0305476e+003 1.3200000e+002 7.8000001e+001
         vertex 1.0105476e+003 1.2200000e+002 7.8000001e+001
      endloop
   endfacet
   facet normal -0.0000000e+000 0.0000000e+000 -1.0000000e+000
      outer loop
         vertex 1.0305476e+003 1.3200000e+002 7.8000001e+001
         vertex 1.0305476e+003 1.2000000e+002 7.8000001e+001
         vertex 1.0105476e+003 1.2200000e+002 7.8000001e+001
      endloop
   endfacet
   facet normal 0.0000000e+000 0.0000000e+000 -1.0000000e+000
      outer loop
         vertex 1.0305476e+003 1.2000000e+002 7.8000001e+001
         vertex 1.0105476e+003 1.2000000e+002 7.8000001e+001
         vertex 1.0105476e+003 1.2200000e+002 7.8000001e+001
      endloop
   endfacet
   facet normal 0.0000000e+000 -3.0790185e-014 1.0000000e+000
      outer loop
         vertex 8.8454755e+002 2.4000001e+001 2.0000010e+000
         vertex 1.0305476e+003 2.4000001e+001 2.0000010e+000
         vertex 1.0105476e+003 1.2000000e+002 2.0000010e+000
      endloop
   endfacet
   facet normal -2.3459189e-014 0.0000000e+000 1.0000000e+000
      outer loop
         vertex 8.8454755e+002 2.4000001e+001 2.0000010e+000
         vertex 1.0105476e+003 1.2000000e+002 2.0000010e+000
         vertex 8.8454755e+002 1.2000000e+002 2.0000010e+000
      endloop
   endfacet
   facet normal -0.0000000e+000 0.0000000e+000 1.0000000e+000
      outer loop
         vertex 8.8454755e+002 1.3200000e+002 2.0000010e+000
         vertex 1.0105476e+003 1.2200000e+002 2.0000010e+000
         vertex 1.0305476e+003 1.3200000e+002 2.0000010e+000
      endloop
   endfacet
   facet normal -0.0000000e+000 0.0000000e+000 1.0000000e+000
      outer loop
         vertex 8.8454755e+002 1.3200000e+002 2.0000010e+000
         vertex 8.8454755e+002 1.2200000e+002 2.0000010e+000
         vertex 1.0105476e+003 1.2200000e+002 2.0000010e+000
      endloop
   endfacet
   facet normal -0.0000000e+000 0.0000000e+000 1.0000000e+000
      outer loop
         vertex 1.0105476e+003 1.2200000e+002 2.0000010e+000
         vertex 1.0105476e+003 1.2000000e+002 2.0000010e+000
         vertex 1.0305476e+003 1.3200000e+002 2.0000010e+000
      endloop
   endfacet
   facet normal 1.6421432e-014 -2.7369054e-014 1.0000000e+000
      outer loop
         vertex 1.0305476e+003 1.3200000e+002 2.0000010e+000
         vertex 1.0105476e+003 1.2000000e+002 2.0000010e+000
         vertex 1.0305476e+003 2.4000001e+001 2.0000010e+000
      endloop
   endfacet
   facet normal 1.0000000e+000 0.0000000e+000 -0.0000000e+000
      outer loop
         vertex 8.8454755e+002 1.2200000e+002 2.0000010e+000
         vertex 8.8454755e+002 1.3200000e+002 2.0000010e+000
         vertex 8.8454755e+002 1.2200000e+002 7.8000001e+001
      endloop
   endfacet
   facet normal 1.0000000e+000 0.0000000e+000 -0.0000000e+000
      outer loop
         vertex 8.8454755e+002 1.3200000e+002 2.0000010e+000
         vertex 8.8454755e+002 1.3200000e+002 7.8000001e+001
         vertex 8.8454755e+002 1.2200000e+002 7.8000001e+001
      endloop
   endfacet
   facet normal 0.0000000e+000 1.0000000e+000 -0.0000000e+000
      outer loop
         vertex 1.0105476e+003 1.2200000e+002 2.0000010e+000
         vertex 8.8454755e+002 1.2200000e+002 2.0000010e+000
         vertex 1.0105476e+003 1.2200000e+002 7.8000001e+001
      endloop
   endfacet
   facet normal 0.0000000e+000 1.0000000e+000 0.0000000e+000
      outer loop
         vertex 8.8454755e+002 1.2200000e+002 2.0000010e+000
         vertex 8.8454755e+002 1.2200000e+002 7.8000001e+001
         vertex 1.0105476e+003 1.2200000e+002 7.8000001e+001
      endloop
   endfacet
   facet normal -0.0000000e+000 0.0000000e+000 1.0000000e+000
      outer loop
         vertex 8.8454755e+002 2.4000001e+001 8.0000001e+001
         vertex 8.8454755e+002 2.2000001e+001 8.0000001e+001
         vertex 1.0305476e+003 2.4000001e+001 8.0000001e+001
      endloop
   endfacet
   facet normal 0.0000000e+000 0.0000000e+000 1.0000000e+000
      outer loop
         vertex 8.8454755e+002 1.2000000e+002 8.0000001e+001
         vertex 8.8254755e+002 1.3200000e+002 8.0000001e+001
         vertex 8.8454755e+002 2.4000001e+001 8.0000001e+001
      endloop
   endfacet
   facet normal 0.0000000e+000 -0.0000000e+000 1.0000000e+000
      outer loop
         vertex 8.8454755e+002 1.2000000e+002 8.0000001e+001
         vertex 1.0305476e+003 1.2000000e+002 8.0000001e+001
         vertex 8.8254755e+002 1.3200000e+002 8.0000001e+001
      endloop
   endfacet
   facet normal -0.0000000e+000 -0.0000000e+000 1.0000000e+000
      outer loop
         vertex 1.0305476e+003 2.4000001e+001 8.0000001e+001
         vertex 1.0325476e+003 2.2000001e+001 8.0000001e+001
         vertex 1.0305476e+003 1.2000000e+002 8.0000001e+001
      endloop
   endfacet
   facet normal 0.0000000e+000 -0.0000000e+000 1.0000000e+000
      outer loop
         vertex 1.0325476e+003 2.2000001e+001 8.0000001e+001
         vertex 1.0325476e+003 1.3200000e+002 8.0000001e+001
         vertex 1.0305476e+003 1.2000000e+002 8.0000001e+001
      endloop
   endfacet
   facet normal -0.0000000e+000 0.0000000e+000 1.0000000e+000
      outer loop
         vertex 8.8254755e+002 1.3200000e+002 8.0000001e+001
         vertex 8.8254755e+002 1.0000000e-006 8.0000001e+001
         vertex 8.8454755e+002 2.4000001e+001 8.0000001e+001
      endloop
   endfacet
   facet normal 0.0000000e+000 0.0000000e+000 1.0000000e+000
      outer loop
         vertex 9.2754755e+002 1.0000000e-006 8.0000001e+001
         vertex 9.2554755e+002 2.0000010e+000 8.0000001e+001
         vertex 8.8254755e+002 1.0000000e-006 8.0000001e+001
      endloop
   endfacet
   facet normal 0.0000000e+000 -0.0000000e+000 1.0000000e+000
      outer loop
         vertex 9.2754755e+002 1.0000000e-006 8.0000001e+001
         vertex 9.2754755e+002 5.0000010e+000 8.0000001e+001
         vertex 9.2554755e+002 2.0000010e+000 8.0000001e+001
      endloop
   endfacet
   facet normal 1.1368684e-013 -7.5791225e-014 1.0000000e+000
      outer loop
         vertex 9.2754755e+002 5.0000010e+000 8.0000001e+001
         vertex 9.2554755e+002 5.0000010e+000 8.0000001e+001
         vertex 9.2554755e+002 2.0000010e+000 8.0000001e+001
      endloop
   endfacet
   facet normal 0.0000000e+000 0.0000000e+000 1.0000000e+000
      outer loop
         vertex 9.2554755e+002 2.0000010e+000 8.0000001e+001
         vertex 8.8454755e+002 2.0000010e+000 8.0000001e+001
         vertex 8.8254755e+002 1.0000000e-006 8.0000001e+001
      endloop
   endfacet
   facet normal 0.0000000e+000 -0.0000000e+000 1.0000000e+000
      outer loop
         vertex 8.8454755e+002 2.0000010e+000 8.0000001e+001
         vertex 8.8454755e+002 2.2000001e+001 8.0000001e+001
         vertex 8.8254755e+002 1.0000000e-006 8.0000001e+001
      endloop
   endfacet
   facet normal 0.0000000e+000 -0.0000000e+000 1.0000000e+000
      outer loop
         vertex 8.8454755e+002 2.2000001e+001 8.0000001e+001
         vertex 1.0325476e+003 2.2000001e+001 8.0000001e+001
         vertex 1.0305476e+003 2.4000001e+001 8.0000001e+001
      endloop
   endfacet
   facet normal 0.0000000e+000 -0.0000000e+000 1.0000000e+000
      outer loop
         vertex 8.8454755e+002 2.2000001e+001 8.0000001e+001
         vertex 8.8454755e+002 2.4000001e+001 8.0000001e+001
         vertex 8.8254755e+002 1.0000000e-006 8.0000001e+001
      endloop
   endfacet
   facet normal -0.0000000e+000 0.0000000e+000 1.0000000e+000
      outer loop
         vertex 8.8254755e+002 1.3200000e+002 8.0000001e+001
         vertex 1.0305476e+003 1.2000000e+002 8.0000001e+001
         vertex 1.0325476e+003 1.3200000e+002 8.0000001e+001
      endloop
   endfacet
   facet normal -1.0000000e+000 0.0000000e+000 0.0000000e+000
      outer loop
         vertex 8.8254755e+002 1.3200000e+002 1.0000003e-006
         vertex 8.8254755e+002 1.0000000e-006 1.0000003e-006
         vertex 8.8254755e+002 1.3200000e+002 8.0000001e+001
      endloop
   endfacet
   facet normal -1.0000000e+000 0.0000000e+000 0.0000000e+000
      outer loop
         vertex 8.8254755e+002 1.0000000e-006 1.0000003e-006
         vertex 8.8254755e+002 1.0000000e-006 8.0000001e+001
         vertex 8.8254755e+002 1.3200000e+002 8.0000001e+001
      endloop
   endfacet
   facet normal 0.0000000e+000 0.0000000e+000 -1.0000000e+000
      outer loop
         vertex 8.8254755e+002 1.0000000e-006 1.0000003e-006
         vertex 8.8254755e+002 1.3200000e+002 1.0000003e-006
         vertex 8.8454755e+002 2.2000001e+001 1.0000003e-006
      endloop
   endfacet
   facet normal 0.0000000e+000 0.0000000e+000 -1.0000000e+000
      outer loop
         vertex 8.8254755e+002 1.0000000e-006 1.0000003e-006
         vertex 8.8454755e+002 2.2000001e+001 1.0000003e-006
         vertex 8.8454755e+002 2.0000010e+000 1.0000003e-006
      endloop
   endfacet
   facet normal 0.0000000e+000 0.0000000e+000 -1.0000000e+000
      outer loop
         vertex 8.8254755e+002 1.0000000e-006 1.0000003e-006
         vertex 8.8454755e+002 2.0000010e+000 1.0000003e-006
         vertex 9.2554755e+002 2.0000010e+000 1.0000003e-006
      endloop
   endfacet
   facet normal 0.0000000e+000 0.0000000e+000 -1.0000000e+000
      outer loop
         vertex 8.8254755e+002 1.0000000e-006 1.0000003e-006
         vertex 9.2554755e+002 2.0000010e+000 1.0000003e-006
         vertex 9.2754755e+002 1.0000000e-006 1.0000003e-006
      endloop
   endfacet
   facet normal 0.0000000e+000 0.0000000e+000 -1.0000000e+000
      outer loop
         vertex 1.0325476e+003 2.2000001e+001 1.0000003e-006
         vertex 8.8454755e+002 2.2000001e+001 1.0000003e-006
         vertex 1.0325476e+003 1.3200000e+002 1.0000003e-006
      endloop
   endfacet
   facet normal 1.1368684e-013 -7.5791225e-014 -1.0000000e+000
      outer loop
         vertex 9.2554755e+002 5.0000010e+000 1.0000001e-006
         vertex 9.2754755e+002 5.0000010e+000 1.0000003e-006
         vertex 9.2554755e+002 2.0000010e+000 1.0000003e-006
      endloop
   endfacet
   facet normal -0.0000000e+000 -0.0000000e+000 -1.0000000e+000
      outer loop
         vertex 9.2754755e+002 5.0000010e+000 1.0000003e-006
         vertex 9.2754755e+002 1.0000000e-006 1.0000003e-006
         vertex 9.2554755e+002 2.0000010e+000 1.0000003e-006
      endloop
   endfacet
   facet normal 0.0000000e+000 0.0000000e+000 -1.0000000e+000
      outer loop
         vertex 8.8454755e+002 2.2000001e+001 1.0000003e-006
         vertex 8.8254755e+002 1.3200000e+002 1.0000003e-006
         vertex 1.0325476e+003 1.3200000e+002 1.0000003e-006
      endloop
   endfacet
   facet normal 1.0000000e+000 0.0000000e+000 0.0000000e+000
      outer loop
         vertex 1.0325476e+003 1.3200000e+002 8.0000001e+001
         vertex 1.0325476e+003 2.2000001e+001 8.0000001e+001
         vertex 1.0325476e+003 1.3200000e+002 1.0000003e-006
      endloop
   endfacet
   facet normal 1.0000000e+000 -0.0000000e+000 0.0000000e+000
      outer loop
         vertex 1.0325476e+003 2.2000001e+001 8.0000001e+001
         vertex 1.0325476e+003 2.2000001e+001 1.0000003e-006
         vertex 1.0325476e+003 1.3200000e+002 1.0000003e-006
      endloop
   endfacet
   facet normal 0.0000000e+000 1.0000000e+000 0.0000000e+000
      outer loop
         vertex 1.0305476e+003 1.3200000e+002 2.0000010e+000
         vertex 1.0305476e+003 1.3200000e+002 7.8000001e+001
         vertex 1.0325476e+003 1.3200000e+002 8.0000001e+001
      endloop
   endfacet
   facet normal -0.0000000e+000 1.0000000e+000 0.0000000e+000
      outer loop
         vertex 1.0305476e+003 1.3200000e+002 2.0000010e+000
         vertex 1.0325476e+003 1.3200000e+002 8.0000001e+001
         vertex 1.0325476e+003 1.3200000e+002 1.0000003e-006
      endloop
   endfacet
   facet normal 0.0000000e+000 1.0000000e+000 0.0000000e+000
      outer loop
         vertex 1.0305476e+003 1.3200000e+002 2.0000010e+000
         vertex 1.0325476e+003 1.3200000e+002 1.0000003e-006
         vertex 8.8254755e+002 1.3200000e+002 1.0000003e-006
      endloop
   endfacet
   facet normal 0.0000000e+000 1.0000000e+000 -0.0000000e+000
      outer loop
         vertex 1.0305476e+003 1.3200000e+002 2.0000010e+000
         vertex 8.8254755e+002 1.3200000e+002 1.0000003e-006
         vertex 8.8454755e+002 1.3200000e+002 2.0000010e+000
      endloop
   endfacet
   facet normal -0.0000000e+000 1.0000000e+000 -0.0000000e+000
      outer loop
         vertex 8.8454755e+002 1.3200000e+002 2.0000010e+000
         vertex 8.8254755e+002 1.3200000e+002 8.0000001e+001
         vertex 8.8454755e+002 1.3200000e+002 7.8000001e+001
      endloop
   endfacet
   facet normal 0.0000000e+000 1.0000000e+000 0.0000000e+000
      outer loop
         vertex 8.8254755e+002 1.3200000e+002 8.0000001e+001
         vertex 8.8454755e+002 1.3200000e+002 2.0000010e+000
         vertex 8.8254755e+002 1.3200000e+002 1.0000003e-006
      endloop
   endfacet
   facet normal -0.0000000e+000 1.0000000e+000 0.0000000e+000
      outer loop
         vertex 8.8254755e+002 1.3200000e+002 8.0000001e+001
         vertex 1.0325476e+003 1.3200000e+002 8.0000001e+001
         vertex 8.8454755e+002 1.3200000e+002 7.8000001e+001
      endloop
   endfacet
   facet normal -0.0000000e+000 1.0000000e+000 0.0000000e+000
      outer loop
         vertex 8.8454755e+002 1.3200000e+002 7.8000001e+001
         vertex 1.0325476e+003 1.3200000e+002 8.0000001e+001
         vertex 1.0305476e+003 1.3200000e+002 7.8000001e+001
      endloop
   endfacet
   facet normal -0.0000000e+000 1.0000000e+000 0.0000000e+000
      outer loop
         vertex 9.0054755e+002 7.4000001e+001 7.9405137e+001
         vertex 1.0305476e+003 7.4000001e+001 7.9405137e+001
         vertex 9.0054755e+002 7.4000001e+001 1.9405137e+001
      endloop
   endfacet
   facet normal 0.0000000e+000 1.0000000e+000 0.0000000e+000
      outer loop
         vertex 1.0305476e+003 7.4000001e+001 7.9405137e+001
         vertex 1.0305476e+003 7.4000001e+001 1.9405137e+001
         vertex 9.0054755e+002 7.4000001e+001 1.9405137e+001
      endloop
   endfacet
   facet normal 0.0000000e+000 -1.0000000e+000 0.0000000e+000
      outer loop
         vertex 9.0254755e+002 7.2000001e+001 1.9405137e+001
         vertex 1.0305476e+003 7.2000001e+001 1.9405137e+001
         vertex 9.0254755e+002 7.2000001e+001 7.9405137e+001
      endloop
   endfacet
   facet normal 0.0000000e+000 -1.0000000e+000 0.0000000e+000
      outer loop
         vertex 1.0305476e+003 7.2000001e+001 1.9405137e+001
         vertex 1.0305476e+003 7.2000001e+001 7.9405137e+001
         vertex 9.0254755e+002 7.2000001e+001 7.9405137e+001
      endloop
   endfacet
   facet normal 0.0000000e+000 -0.0000000e+000 1.0000000e+000
      outer loop
         vertex 9.0254755e+002 2.4000001e+001 7.9405137e+001
         vertex 9.0254755e+002 7.2000001e+001 7.9405137e+001
         vertex 9.0054755e+002 2.4000001e+001 7.9405137e+001
      endloop
   endfacet
   facet normal 0.0000000e+000 -0.0000000e+000 1.0000000e+000
      outer loop
         vertex 1.0305476e+003 7.2000001e+001 7.9405137e+001
         vertex 1.0305476e+003 7.4000001e+001 7.9405137e+001
         vertex 9.0254755e+002 7.2000001e+001 7.9405137e+001
      endloop
   endfacet
   facet normal 0.0000000e+000 0.0000000e+000 1.0000000e+000
      outer loop
         vertex 1.0305476e+003 7.4000001e+001 7.9405137e+001
         vertex 9.0054755e+002 7.4000001e+001 7.9405137e+001
         vertex 9.0254755e+002 7.2000001e+001 7.9405137e+001
      endloop
   endfacet
   facet normal -0.0000000e+000 0.0000000e+000 1.0000000e+000
      outer loop
         vertex 9.0054755e+002 7.4000001e+001 7.9405137e+001
         vertex 9.0054755e+002 2.4000001e+001 7.9405137e+001
         vertex 9.0254755e+002 7.2000001e+001 7.9405137e+001
      endloop
   endfacet
   facet normal 1.0000000e+000 0.0000000e+000 -0.0000000e+000
      outer loop
         vertex 9.0254755e+002 2.4000001e+001 1.9405137e+001
         vertex 9.0254755e+002 7.2000001e+001 1.9405137e+001
         vertex 9.0254755e+002 2.4000001e+001 7.9405137e+001
      endloop
   endfacet
   facet normal 1.0000000e+000 0.0000000e+000 -0.0000000e+000
      outer loop
         vertex 9.0254755e+002 7.2000001e+001 1.9405137e+001
         vertex 9.0254755e+002 7.2000001e+001 7.9405137e+001
         vertex 9.0254755e+002 2.4000001e+001 7.9405137e+001
      endloop
   endfacet
   facet normal 0.0000000e+000 0.0000000e+000 -1.0000000e+000
      outer loop
         vertex 9.0254755e+002 2.4000001e+001 1.9405137e+001
         vertex 9.0054755e+002 2.4000001e+001 1.9405137e+001
         vertex 9.0254755e+002 7.2000001e+001 1.9405137e+001
      endloop
   endfacet
   facet normal 0.0000000e+000 0.0000000e+000 -1.0000000e+000
      outer loop
         vertex 9.0054755e+002 2.4000001e+001 1.9405137e+001
         vertex 9.0054755e+002 7.4000001e+001 1.9405137e+001
         vertex 9.0254755e+002 7.2000001e+001 1.9405137e+001
      endloop
   endfacet
   facet normal 0.0000000e+000 -0.0000000e+000 -1.0000000e+000
      outer loop
         vertex 9.0054755e+002 7.4000001e+001 1.9405137e+001
         vertex 1.0305476e+003 7.4000001e+001 1.9405137e+001
         vertex 9.0254755e+002 7.2000001e+001 1.9405137e+001
      endloop
   endfacet
   facet normal -0.0000000e+000 -0.0000000e+000 -1.0000000e+000
      outer loop
         vertex 1.0305476e+003 7.4000001e+001 1.9405137e+001
         vertex 1.0305476e+003 7.2000001e+001 1.9405137e+001
         vertex 9.0254755e+002 7.2000001e+001 1.9405137e+001
      endloop
   endfacet
   facet normal -1.0000000e+000 0.0000000e+000 -0.0000000e+000
      outer loop
         vertex 9.0054755e+002 2.4000001e+001 7.9405137e+001
         vertex 9.0054755e+002 7.4000001e+001 7.9405137e+001
         vertex 9.0054755e+002 2.4000001e+001 1.9405137e+001
      endloop
   endfacet
   facet normal -1.0000000e+000 -0.0000000e+000 -0.0000000e+000
      outer loop
         vertex 9.0054755e+002 7.4000001e+001 7.9405137e+001
         vertex 9.0054755e+002 7.4000001e+001 1.9405137e+001
         vertex 9.0054755e+002 2.4000001e+001 1.9405137e+001
      endloop
   endfacet
endsolid AutoCAD
